<?xml version="1.0" encoding="UTF-8" standalone="no"?>
<svg
   xmlns:dc="http://purl.org/dc/elements/1.1/"
   xmlns:cc="http://creativecommons.org/ns#"
   xmlns:rdf="http://www.w3.org/1999/02/22-rdf-syntax-ns#"
   xmlns:svg="http://www.w3.org/2000/svg"
   xmlns="http://www.w3.org/2000/svg"
   height="66.455093"
   width="317.75839"
   version="1.1"
   viewBox="0 0 317.75838 66.455092"
   id="svg5145">
  <metadata
     id="metadata875">
    <rdf:RDF>
      <cc:Work
         rdf:about="">
        <dc:format>image/svg+xml</dc:format>
        <dc:type
           rdf:resource="http://purl.org/dc/dcmitype/StillImage" />
        <dc:title>decenter LOGO final</dc:title>
      </cc:Work>
    </rdf:RDF>
  </metadata>
  <defs
     id="defs848">
    <style
       id="style846">.cls-1{fill:none;stroke:#58595b;stroke-linecap:round;stroke-linejoin:round;stroke-width:2.83px;}.cls-2{fill:#a7a9ac;}.cls-3{fill:#034ea2;}.cls-4{fill:#df4134;}.cls-5{fill:#58595b;}</style>
  </defs>
  <title
     id="title850">decenter LOGO final</title>
  <g
     transform="translate(-48.855,-78.825)"
     id="g10630">
    <path
       style="fill:none;stroke:#58595b;stroke-width:2.82999992px;stroke-linecap:round;stroke-linejoin:round"
       id="path12889"
       class="cls-1"
       d="m 95.14,80.25 a 32.21,32.21 0 0 0 -22.5,9.31 c -4.75,4.75 -7.33,11.16 -8.37,17.79 -7.73,2.33 -14,9.56 -14,17.73 0,9.84 9,18.78 18.79,18.78 h 52.14 a 25.3,25.3 0 1 0 0,-50.59 v 0 c -0.23,0 -0.47,0.06 -0.7,0.06 -5.93,-7.9 -15.44,-13.08 -25.34,-13.09 z" />
    <ellipse
       style="fill:#a7a9ac"
       id="ellipse12893"
       class="cls-2"
       cx="121.2"
       cy="118.57"
       rx="19.549999"
       ry="19.540001" />
    <ellipse
       style="fill:#034ea2"
       id="ellipse12897"
       class="cls-3"
       cx="95.139999"
       cy="112.06"
       rx="26.059999"
       ry="26.049999" />
    <ellipse
       style="fill:#df4134"
       id="ellipse12901"
       class="cls-4"
       cx="69.07"
       cy="125.08"
       rx="13.03"
       ry="13.02" />
    <path
       style="fill:#58595b"
       class="cls-5"
       d="m 186.87,118.66 a 3,3 0 0 0 0,0.3 c 0,0.13 0,0.26 0,0.42 0,0.16 0,0.29 0,0.42 0,0.13 0,0.21 0,0.26 0,0.05 0,0.35 0,0.51 0,0.16 0,0.32 0,0.47 a 0.79,0.79 0 0 0 -0.06,0.38 1.28,1.28 0 0 1 0,0.38 q -0.08,0.42 -0.11,0.83 a 4.83,4.83 0 0 1 -0.15,0.83 q -0.19,0.64 -0.34,1.23 a 9.46,9.46 0 0 1 -0.38,1.15 13.19,13.19 0 0 1 -1.59,2.88 9.4,9.4 0 0 1 -2.27,2.19 10.34,10.34 0 0 1 -1.57,0.91 15,15 0 0 1 -1.76,0.68 5.4,5.4 0 0 1 -0.78,0.17 6.83,6.83 0 0 0 -0.81,0.17 1.82,1.82 0 0 1 -0.36,0 1.82,1.82 0 0 0 -0.36,0 0.81,0.81 0 0 1 -0.3,0 1.06,1.06 0 0 0 -0.34,0 0.41,0.41 0 0 1 -0.23,0 0.42,0.42 0 0 0 -0.23,0 2.38,2.38 0 0 1 -0.76,0 c -0.3,0 -0.57,0 -0.79,0 h -8.82 a 8.5,8.5 0 0 1 -1.08,-0.06 0.76,0.76 0 0 1 -0.62,-0.51 2.59,2.59 0 0 1 -0.09,-0.93 q 0,-0.62 0,-1 v -22.08 c 0,-0.3 0,-0.62 0,-1 a 1.42,1.42 0 0 1 0.17,-0.81 1.12,1.12 0 0 1 0.57,-0.38 0.22,0.22 0 0 1 0.15,0 0.21,0.21 0 0 0 0.15,0 h 10.18 0.47 a 1.64,1.64 0 0 1 0.44,0 h 0.45 a 0.89,0.89 0 0 0 0.42,0.06 0.9,0.9 0 0 1 0.42,0.06 1.06,1.06 0 0 0 0.44,0.06 1.06,1.06 0 0 1 0.44,0.06 l 1,0.21 a 4.87,4.87 0 0 1 0.95,0.28 q 0.42,0.19 0.83,0.34 a 4.65,4.65 0 0 1 0.79,0.38 q 0.95,0.6 1.74,1.17 l 0.23,0.23 a 4.45,4.45 0 0 1 0.68,0.68 l 0.34,0.3 a 4.59,4.59 0 0 0 0.44,0.59 4.85,4.85 0 0 1 0.44,0.59 12.61,12.61 0 0 1 0.87,1.68 19.53,19.53 0 0 1 0.68,1.87 4.05,4.05 0 0 1 0.25,1 10.17,10.17 0 0 0 0.17,1.06 2.24,2.24 0 0 0 0,0.32 2.06,2.06 0 0 1 0,0.28 1.27,1.27 0 0 1 0.06,0.49 1,1 0 0 0 0.06,0.45 z m -5.9,1.82 a 2.46,2.46 0 0 0 0,-1.21 v -0.72 a 4.28,4.28 0 0 1 -0.09,-0.72 3.58,3.58 0 0 0 -0.09,-0.68 0.74,0.74 0 0 1 -0.06,-0.36 0.74,0.74 0 0 0 -0.06,-0.36 l -0.36,-1.15 a 4.56,4.56 0 0 0 -0.47,-1 7.27,7.27 0 0 0 -1.31,-1.57 6.5,6.5 0 0 0 -1.8,-1.12 l -0.68,-0.21 -0.68,-0.17 -0.55,-0.06 a 3.31,3.31 0 0 1 -0.55,-0.09 0.84,0.84 0 0 0 -0.3,0 0.6,0.6 0 0 1 -0.27,0 h -0.83 a 1.48,1.48 0 0 0 -0.42,0 H 172 170.3 a 0.25,0.25 0 0 1 -0.25,0 0.55,0.55 0 0 0 -0.28,0 l -0.38,0.13 a 0.52,0.52 0 0 0 -0.3,0.25 0.83,0.83 0 0 0 -0.15,0.53 v 0.76 q 0,0.49 0,1 0,0.51 0,1.06 v 10.56 c 0,0.15 0,0.32 0,0.49 a 1,1 0 0 0 0.06,0.45 v 0.38 c 0,0.18 0,0.35 0,0.51 a 1.43,1.43 0 0 0 0.09,0.43 0.91,0.91 0 0 0 0.87,0.47 h 1.32 3 a 7.29,7.29 0 0 0 2.57,-0.44 5.65,5.65 0 0 0 2.21,-1.51 8.4,8.4 0 0 0 1.38,-2.35 2.72,2.72 0 0 0 0.23,-0.68 c 0.05,-0.25 0.11,-0.5 0.19,-0.76 V 122 a 2.07,2.07 0 0 0 0.08,-0.57 2.48,2.48 0 0 1 0.08,-0.61 z"
       id="path856" />
    <path
       style="fill:#58595b"
       class="cls-5"
       d="m 192.09,106.06 h 17.44 c 0.3,0 0.59,0 0.87,0 a 0.79,0.79 0 0 1 0.61,0.3 0.62,0.62 0 0 1 0.09,0.26 0.91,0.91 0 0 0 0.09,0.3 v 0.42 a 2.84,2.84 0 0 1 0,0.57 c 0,0.2 0,0.39 0,0.57 0,0.18 0,0.4 0,0.59 a 2.68,2.68 0 0 1 0,0.55 3.13,3.13 0 0 0 0,0.57 0.91,0.91 0 0 1 -0.38,0.61 1,1 0 0 1 -0.57,0.15 H 200 199.3 q -0.4,0 -0.79,0 a 6.3,6.3 0 0 0 -0.74,0.08 1.15,1.15 0 0 0 -0.49,0.17 0.8,0.8 0 0 0 -0.32,0.55 5.23,5.23 0 0 0 -0.06,0.81 v 3.25 a 4.88,4.88 0 0 0 0.15,0.51 0.6,0.6 0 0 0 0.26,0.32 1.06,1.06 0 0 0 0.53,0.17 h 0.64 8.55 0.66 q 0.4,0 0.78,0 l 0.7,0.06 a 1,1 0 0 1 0.47,0.15 0.67,0.67 0 0 1 0.27,0.45 4.42,4.42 0 0 1 0.09,0.74 q 0,0.4 0,0.81 0,0.41 0,0.72 v 0.53 a 1.23,1.23 0 0 1 -0.08,0.45 0.91,0.91 0 0 1 -0.3,0.49 1.29,1.29 0 0 1 -0.51,0.15 6.15,6.15 0 0 1 -0.72,0 h -0.79 -0.66 -7.38 -0.87 a 3.91,3.91 0 0 0 -0.78,0 1.45,1.45 0 0 0 -0.61,0.23 1,1 0 0 0 -0.36,0.51 2,2 0 0 0 0,0.4 v 4 a 5.22,5.22 0 0 0 0.06,0.81 0.79,0.79 0 0 0 0.32,0.55 0.46,0.46 0 0 0 0.28,0.13 1.46,1.46 0 0 1 0.36,0.09 h 0.38 a 1.48,1.48 0 0 0 0.42,0 h 0.42 11.29 a 1.13,1.13 0 0 1 0.51,0.11 0.68,0.68 0 0 1 0.42,0.42 1.54,1.54 0 0 1 0.09,0.45 c 0,0.18 0,0.37 0,0.57 v 1.74 q 0,0.45 0,0.85 a 0.73,0.73 0 0 1 -0.34,0.59 0.89,0.89 0 0 1 -0.59,0.19 h -17.8 a 6.6,6.6 0 0 1 -0.93,-0.06 0.78,0.78 0 0 1 -0.59,-0.36 1,1 0 0 1 -0.15,-0.59 V 107 a 0.83,0.83 0 0 1 0.15,-0.53 0.88,0.88 0 0 1 0.57,-0.38 0.22,0.22 0 0 1 0.15,0 0.21,0.21 0 0 0 0.13,-0.03 z"
       id="path858" />
    <path
       style="fill:#58595b"
       class="cls-5"
       d="m 227.17,105.42 a 12.79,12.79 0 0 1 6.55,1.36 11.24,11.24 0 0 1 4.09,3.82 7.65,7.65 0 0 1 0.68,1.31 15,15 0 0 1 0.49,1.46 c 0.05,0.18 0.1,0.38 0.15,0.61 a 1.1,1.1 0 0 1 0,0.64 0.41,0.41 0 0 1 -0.28,0.28 l -0.47,0.13 H 238 a 1.3,1.3 0 0 1 -0.51,0.06 h -0.55 -0.81 q -0.47,0 -0.93,0 a 7.77,7.77 0 0 1 -0.83,-0.08 1.61,1.61 0 0 1 -0.57,-0.17 1.59,1.59 0 0 1 -0.45,-0.72 3.33,3.33 0 0 0 -0.38,-0.79 5.46,5.46 0 0 0 -1.89,-2 7.69,7.69 0 0 0 -1.78,-0.79 4.89,4.89 0 0 0 -1.61,-0.23 6.66,6.66 0 0 0 -1.68,0.19 l -0.55,0.13 a 3,3 0 0 0 -0.51,0.17 6.58,6.58 0 0 0 -3.63,3.63 c -0.13,0.3 -0.24,0.62 -0.34,0.95 -0.1,0.33 -0.21,0.67 -0.34,1 q 0,0.27 -0.08,0.49 c 0,0.15 -0.05,0.32 -0.08,0.49 a 1.17,1.17 0 0 0 -0.06,0.47 1.46,1.46 0 0 1 -0.06,0.51 2,2 0 0 0 -0.06,0.62 q 0,0.32 0,0.63 a 2.42,2.42 0 0 1 0,0.3 0.81,0.81 0 0 0 0,0.3 v 0.34 a 0.82,0.82 0 0 1 0.06,0.38 0.78,0.78 0 0 0 0.06,0.38 3.22,3.22 0 0 0 0.08,0.61 c 0.05,0.28 0.1,0.54 0.15,0.78 a 6.47,6.47 0 0 0 0.19,0.7 9.55,9.55 0 0 0 1.36,2.71 6.41,6.41 0 0 0 2.19,1.83 6.5,6.5 0 0 0 0.87,0.32 l 1,0.28 0.36,0.06 h 0.36 0.3 a 1.13,1.13 0 0 0 0.49,0.06 3.67,3.67 0 0 0 0.49,-0.06 1.14,1.14 0 0 0 0.34,0 l 0.85,-0.15 a 3,3 0 0 0 0.78,-0.27 4.78,4.78 0 0 0 1.5,-1 7.87,7.87 0 0 0 1.12,-1.42 4.16,4.16 0 0 0 0.38,-0.83 q 0.15,-0.45 0.34,-0.91 c 0.08,-0.28 0.15,-0.53 0.23,-0.76 a 0.91,0.91 0 0 1 0.49,-0.53 1.81,1.81 0 0 1 0.57,-0.08 h 3.65 a 1,1 0 0 1 0.59,0.15 0.74,0.74 0 0 1 0.28,0.61 2.41,2.41 0 0 1 -0.09,0.79 l -0.23,1 -0.36,1.1 a 6.07,6.07 0 0 1 -0.43,1 3.62,3.62 0 0 0 -0.3,0.59 2.63,2.63 0 0 1 -0.3,0.55 10.9,10.9 0 0 1 -6.05,4.54 5.17,5.17 0 0 1 -0.83,0.23 l -0.83,0.15 a 0.75,0.75 0 0 1 -0.36,0.06 0.73,0.73 0 0 0 -0.36,0.06 h -0.51 l -0.51,0.06 h -1.29 a 2.67,2.67 0 0 1 -0.64,-0.08 1.33,1.33 0 0 0 -0.38,0 l -0.53,-0.08 -0.57,-0.08 c -0.25,-0.08 -0.5,-0.14 -0.74,-0.19 -0.24,-0.05 -0.49,-0.11 -0.74,-0.19 l -0.68,-0.25 c -0.23,-0.09 -0.44,-0.18 -0.64,-0.28 a 11.59,11.59 0 0 1 -3.84,-2.63 13.24,13.24 0 0 1 -2.55,-3.92 9.92,9.92 0 0 1 -0.38,-1.14 q -0.15,-0.57 -0.34,-1.17 a 0.88,0.88 0 0 1 -0.08,-0.32 1.23,1.23 0 0 0 0,-0.28 5.86,5.86 0 0 1 -0.11,-0.72 6.08,6.08 0 0 0 -0.11,-0.72 0.64,0.64 0 0 1 -0.06,-0.32 0.75,0.75 0 0 0 0,-0.28 v -0.72 a 2.15,2.15 0 0 1 0,-1.14 0.54,0.54 0 0 0 0,-0.25 1.55,1.55 0 0 1 0,-0.21 v -0.34 a 3.59,3.59 0 0 0 0.09,-0.64 c 0,-0.23 0,-0.45 0.06,-0.68 a 5.52,5.52 0 0 0 0.11,-0.59 5.29,5.29 0 0 1 0.11,-0.59 q 0.15,-0.53 0.27,-1 a 5.62,5.62 0 0 1 0.3,-1 q 0.19,-0.49 0.4,-1 a 6.21,6.21 0 0 1 0.47,-0.91 16.54,16.54 0 0 1 1.25,-1.89 4,4 0 0 1 0.42,-0.49 l 0.45,-0.45 a 11.67,11.67 0 0 1 2,-1.61 14.28,14.28 0 0 1 2.36,-1.19 7.7,7.7 0 0 1 0.95,-0.32 l 1,-0.25 a 1.45,1.45 0 0 1 0.45,-0.08 1.1,1.1 0 0 0 0.42,-0.08 l 0.59,-0.06 0.59,-0.06 a 0.24,0.24 0 0 1 0.19,0 0.24,0.24 0 0 0 0.15,0.1 z"
       id="path860" />
    <path
       style="fill:#58595b"
       class="cls-5"
       d="m 244.65,106.06 h 17.45 c 0.3,0 0.59,0 0.87,0 a 0.79,0.79 0 0 1 0.61,0.3 0.61,0.61 0 0 1 0.09,0.26 0.92,0.92 0 0 0 0.09,0.3 v 0.42 a 2.84,2.84 0 0 1 0,0.57 q 0,0.3 0,0.57 0,0.27 0,0.59 a 2.68,2.68 0 0 1 0,0.55 3.13,3.13 0 0 0 0,0.57 0.91,0.91 0 0 1 -0.38,0.61 1,1 0 0 1 -0.57,0.15 h -10.21 -0.7 c -0.26,0 -0.53,0 -0.79,0 a 6.32,6.32 0 0 0 -0.74,0.08 1.15,1.15 0 0 0 -0.49,0.17 0.8,0.8 0 0 0 -0.32,0.55 5.35,5.35 0 0 0 -0.06,0.81 v 3.25 a 5.13,5.13 0 0 0 0.15,0.51 0.6,0.6 0 0 0 0.27,0.32 1.06,1.06 0 0 0 0.53,0.17 h 0.64 8.55 0.66 c 0.26,0 0.52,0 0.78,0 l 0.7,0.06 a 1,1 0 0 1 0.47,0.15 0.67,0.67 0 0 1 0.26,0.45 4.32,4.32 0 0 1 0.09,0.74 q 0,0.4 0,0.81 0,0.41 0,0.72 v 0.53 a 1.21,1.21 0 0 1 -0.08,0.45 0.91,0.91 0 0 1 -0.3,0.49 1.29,1.29 0 0 1 -0.51,0.15 6.16,6.16 0 0 1 -0.72,0 h -0.79 -0.66 -7.38 -0.87 a 3.9,3.9 0 0 0 -0.78,0 1.45,1.45 0 0 0 -0.61,0.23 1,1 0 0 0 -0.36,0.51 2,2 0 0 0 0,0.4 v 4 a 5.34,5.34 0 0 0 0.06,0.81 0.79,0.79 0 0 0 0.32,0.55 0.46,0.46 0 0 0 0.28,0.13 1.44,1.44 0 0 1 0.36,0.09 h 0.38 a 1.48,1.48 0 0 0 0.42,0 h 0.42 11.22 a 1.13,1.13 0 0 1 0.51,0.11 0.68,0.68 0 0 1 0.42,0.42 1.57,1.57 0 0 1 0.09,0.45 c 0,0.18 0,0.37 0,0.57 v 1.74 q 0,0.45 0,0.85 a 0.73,0.73 0 0 1 -0.34,0.59 0.89,0.89 0 0 1 -0.59,0.19 h -17.8 a 6.59,6.59 0 0 1 -0.93,-0.06 0.78,0.78 0 0 1 -0.59,-0.36 1,1 0 0 1 -0.15,-0.59 V 107 a 0.82,0.82 0 0 1 0.15,-0.53 0.87,0.87 0 0 1 0.57,-0.38 0.22,0.22 0 0 1 0.15,0 0.21,0.21 0 0 0 0.16,-0.03 z"
       id="path862" />
    <path
       style="fill:#58595b"
       class="cls-5"
       d="m 269.21,106.06 h 3.07 0.81 a 1.4,1.4 0 0 1 0.7,0.13 1.25,1.25 0 0 1 0.59,0.45 c 0.14,0.2 0.27,0.4 0.4,0.61 l 1.36,2.16 q 1.32,2.16 2.67,4.29 1.35,2.13 2.67,4.29 0.64,1 1.27,2.06 0.63,1.06 1.31,2 l 0.28,0.45 a 1.57,1.57 0 0 0 0.36,0.42 1.19,1.19 0 0 0 0.19,0.15 0.19,0.19 0 0 0 0.23,0 0.33,0.33 0 0 0 0.26,-0.34 2.33,2.33 0 0 1 0.08,-0.57 3,3 0 0 0 0,-0.59 q 0,-0.32 0,-0.62 v -12.6 c 0,-0.13 0,-0.25 0,-0.38 a 1,1 0 0 1 0,-0.34 v -0.42 a 1.36,1.36 0 0 1 0.23,-0.83 0.71,0.71 0 0 1 0.51,-0.3 6.57,6.57 0 0 1 0.74,0 h 2.91 a 1.67,1.67 0 0 1 0.53,0.08 0.74,0.74 0 0 1 0.53,0.66 q 0,0.47 0,1.12 v 23.2 c 0,0.28 0,0.55 0,0.83 a 1.07,1.07 0 0 1 -0.13,0.64 0.64,0.64 0 0 1 -0.36,0.28 l -0.51,0.13 h -4.07 a 1.21,1.21 0 0 1 -0.55,-0.11 1.54,1.54 0 0 1 -0.64,-0.51 q -0.23,-0.32 -0.45,-0.7 -0.22,-0.38 -0.66,-1.08 -0.32,-0.55 -0.66,-1.08 l -5.68,-9.08 -1,-1.68 -1,-1.68 c -0.13,-0.18 -0.27,-0.4 -0.44,-0.66 a 0.75,0.75 0 0 0 -0.66,-0.4 0.85,0.85 0 0 0 -0.32,0.61 c 0,0.23 0,0.52 0,0.87 v 13.17 a 3.49,3.49 0 0 0 0,0.38 0.81,0.81 0 0 1 -0.06,0.38 v 0.42 a 1.53,1.53 0 0 1 -0.19,0.87 0.76,0.76 0 0 1 -0.51,0.27 6.37,6.37 0 0 1 -0.74,0 h -2.91 a 1.67,1.67 0 0 1 -0.53,-0.08 0.79,0.79 0 0 1 -0.55,-0.68 10.18,10.18 0 0 1 -0.06,-1.13 V 107.2 a 1.45,1.45 0 0 1 0.15,-0.72 0.86,0.86 0 0 1 0.53,-0.38 h 0.17 z"
       id="path864" />
    <path
       style="fill:#58595b"
       class="cls-5"
       d="m 310.26,106.06 h 3.86 1 a 1.57,1.57 0 0 1 0.78,0.21 0.46,0.46 0 0 1 0.17,0.25 3,3 0 0 1 0.09,0.36 v 0.19 a 1.39,1.39 0 0 1 0,0.34 v 1.85 c 0,0.18 0,0.35 0,0.51 a 1.18,1.18 0 0 1 -0.06,0.47 0.82,0.82 0 0 1 -0.76,0.68 q -0.57,0 -1.36,0 h -3.86 a 12.85,12.85 0 0 0 -1.31,0.06 0.85,0.85 0 0 0 -0.74,0.7 0.77,0.77 0 0 0 0,0.34 0.56,0.56 0 0 1 0,0.34 2.16,2.16 0 0 0 0,0.51 c 0,0.19 0,0.36 0,0.51 v 17.82 a 8.13,8.13 0 0 1 -0.06,1 0.76,0.76 0 0 1 -0.47,0.63 2.2,2.2 0 0 1 -0.61,0.08 h -3.22 a 7.39,7.39 0 0 1 -0.78,0 0.79,0.79 0 0 1 -0.55,-0.27 1.43,1.43 0 0 1 -0.19,-0.78 v -18.42 c 0,-0.18 0,-0.36 0,-0.55 a 1.36,1.36 0 0 0 -0.06,-0.51 0.77,0.77 0 0 1 0,-0.34 0.44,0.44 0 0 0 0,-0.3 0.86,0.86 0 0 0 -0.78,-0.7 q -0.59,-0.06 -1.38,-0.06 h -3.52 -0.93 a 3,3 0 0 1 -0.81,-0.06 0.91,0.91 0 0 1 -0.45,-0.34 1.09,1.09 0 0 1 -0.13,-0.49 q 0,-0.3 0,-0.61 v -1.85 a 5.87,5.87 0 0 1 0.06,-0.87 0.77,0.77 0 0 1 0.36,-0.57 1.52,1.52 0 0 1 0.42,-0.15 h 15.32 z"
       id="path866" />
    <path
       style="fill:#58595b"
       class="cls-5"
       d="m 320.33,106.06 h 17.44 c 0.3,0 0.59,0 0.87,0 a 0.79,0.79 0 0 1 0.61,0.3 0.61,0.61 0 0 1 0.09,0.26 0.92,0.92 0 0 0 0.09,0.3 v 0.42 a 2.84,2.84 0 0 1 0,0.57 q 0,0.3 0,0.57 0,0.27 0,0.59 a 2.68,2.68 0 0 1 0,0.55 3.13,3.13 0 0 0 0,0.57 0.91,0.91 0 0 1 -0.38,0.61 1,1 0 0 1 -0.57,0.15 h -10.2 -0.7 c -0.26,0 -0.53,0 -0.79,0 a 6.32,6.32 0 0 0 -0.74,0.08 1.15,1.15 0 0 0 -0.49,0.17 0.8,0.8 0 0 0 -0.32,0.55 5.35,5.35 0 0 0 -0.06,0.81 v 3.25 a 5.13,5.13 0 0 0 0.15,0.51 0.6,0.6 0 0 0 0.27,0.32 1.06,1.06 0 0 0 0.53,0.17 h 0.64 8.55 0.66 c 0.26,0 0.52,0 0.78,0 l 0.7,0.06 a 1,1 0 0 1 0.47,0.15 0.67,0.67 0 0 1 0.26,0.45 4.32,4.32 0 0 1 0.09,0.74 q 0,0.4 0,0.81 0,0.41 0,0.72 v 0.53 a 1.21,1.21 0 0 1 -0.08,0.45 0.91,0.91 0 0 1 -0.3,0.49 1.29,1.29 0 0 1 -0.51,0.15 6.16,6.16 0 0 1 -0.72,0 h -0.79 -0.66 -7.38 -0.87 a 3.9,3.9 0 0 0 -0.78,0 1.45,1.45 0 0 0 -0.61,0.23 1,1 0 0 0 -0.36,0.51 2,2 0 0 0 0,0.4 v 4 a 5.34,5.34 0 0 0 0.06,0.81 0.79,0.79 0 0 0 0.32,0.55 0.46,0.46 0 0 0 0.28,0.13 1.44,1.44 0 0 1 0.36,0.09 h 0.38 a 1.48,1.48 0 0 0 0.42,0 h 0.42 11.24 a 1.13,1.13 0 0 1 0.51,0.11 0.68,0.68 0 0 1 0.42,0.42 1.57,1.57 0 0 1 0.09,0.45 c 0,0.18 0,0.37 0,0.57 v 1.74 q 0,0.45 0,0.85 a 0.73,0.73 0 0 1 -0.34,0.59 0.89,0.89 0 0 1 -0.59,0.19 H 321 a 6.59,6.59 0 0 1 -0.93,-0.06 0.78,0.78 0 0 1 -0.59,-0.36 1,1 0 0 1 -0.15,-0.59 V 107 a 0.82,0.82 0 0 1 0.15,-0.53 0.87,0.87 0 0 1 0.57,-0.38 0.22,0.22 0 0 1 0.15,0 0.21,0.21 0 0 0 0.13,-0.03 z"
       id="path868" />
    <path
       style="fill:#58595b"
       class="cls-5"
       d="m 366.57,132.17 a 0.53,0.53 0 0 1 0,0.42 0.67,0.67 0 0 1 -0.21,0.26 0.87,0.87 0 0 1 -0.62,0.17 h -0.81 -2.08 a 8.6,8.6 0 0 1 -1.06,-0.06 0.88,0.88 0 0 1 -0.68,-0.43 2.53,2.53 0 0 1 -0.34,-1.21 7.75,7.75 0 0 0 -0.19,-1.36 2,2 0 0 0 0,-0.28 1.72,1.72 0 0 1 0,-0.25 3.94,3.94 0 0 1 -0.11,-1 5.17,5.17 0 0 0 -0.08,-0.93 1.15,1.15 0 0 1 0,-0.34 c -0.05,-0.28 -0.09,-0.56 -0.13,-0.85 a 6.34,6.34 0 0 0 -0.17,-0.85 8.06,8.06 0 0 0 -0.72,-1.55 2.57,2.57 0 0 0 -1.17,-1 2.14,2.14 0 0 0 -0.38,-0.11 l -0.42,-0.11 a 5,5 0 0 0 -1.57,-0.23 h -4.86 l -0.53,0.11 a 0.6,0.6 0 0 0 -0.38,0.23 1.72,1.72 0 0 0 -0.27,1.17 q 0,0.79 0,1.44 v 4.84 c 0,0.2 0,0.41 0,0.62 0,0.21 0,0.42 0,0.62 V 132 a 1.18,1.18 0 0 1 -0.08,0.44 0.69,0.69 0 0 1 -0.45,0.45 1.22,1.22 0 0 1 -0.45,0.08 h -2.27 -1.29 a 1.57,1.57 0 0 1 -1,-0.25 0.76,0.76 0 0 1 -0.3,-0.7 v -24 q 0,-0.42 0,-0.87 a 1.12,1.12 0 0 1 0.17,-0.72 1.11,1.11 0 0 1 0.57,-0.38 0.26,0.26 0 0 1 0.17,0 0.26,0.26 0 0 0 0.17,0 h 12.87 1.15 a 5.52,5.52 0 0 1 1,0.13 1.05,1.05 0 0 0 0.4,0.08 1.07,1.07 0 0 1 0.4,0.08 l 0.53,0.15 a 4.65,4.65 0 0 1 0.53,0.19 8.59,8.59 0 0 1 1.74,1 5.82,5.82 0 0 1 1.32,1.4 1.94,1.94 0 0 1 0.25,0.4 1.83,1.83 0 0 0 0.25,0.4 4.61,4.61 0 0 1 0.45,1.1 q 0.15,0.57 0.34,1.25 a 0.84,0.84 0 0 1 0,0.3 0.51,0.51 0 0 0 0.06,0.3 v 0.34 a 2.28,2.28 0 0 1 0,0.74 3.83,3.83 0 0 1 -0.11,0.7 2.27,2.27 0 0 0 -0.08,0.55 1.85,1.85 0 0 1 -0.08,0.51 q -0.19,0.57 -0.38,1.08 a 4.66,4.66 0 0 1 -0.49,1 2.47,2.47 0 0 1 -0.19,0.25 2.57,2.57 0 0 0 -0.19,0.25 l -0.25,0.3 a 1.9,1.9 0 0 1 -0.28,0.26 l -0.45,0.38 -0.49,0.38 -0.3,0.25 a 0.83,0.83 0 0 0 -0.23,0.32 0.34,0.34 0 0 0 0.08,0.38 1.77,1.77 0 0 0 0.27,0.23 l 0.76,0.61 a 2.94,2.94 0 0 1 0.64,0.72 6.22,6.22 0 0 1 0.72,1.33 14.29,14.29 0 0 1 0.49,1.55 4.28,4.28 0 0 1 0.09,0.72 4.28,4.28 0 0 0 0.09,0.72 c 0,0.15 0,0.3 0,0.43 0,0.13 0,0.28 0,0.44 a 0.92,0.92 0 0 1 0,0.32 1.16,1.16 0 0 0 0,0.36 0.82,0.82 0 0 1 0,0.3 1.06,1.06 0 0 0 0,0.34 4,4 0 0 1 0.08,0.79 4,4 0 0 0 0.08,0.79 l 0.11,0.68 0.15,0.68 c 0.11,0.22 0.16,0.47 0.21,0.64 z m -6.24,-17.07 a 3.84,3.84 0 0 0 0,-1 6.73,6.73 0 0 0 -0.13,-0.91 0.61,0.61 0 0 1 -0.08,-0.26 0.41,0.41 0 0 0 -0.08,-0.23 3,3 0 0 0 -1.67,-1.7 3.84,3.84 0 0 0 -1.48,-0.34 q -0.83,0 -1.74,0 h -4.39 a 0.15,0.15 0 0 1 -0.15,0.06 h -0.15 a 0.91,0.91 0 0 0 -0.61,0.38 1.33,1.33 0 0 0 -0.17,0.78 c 0,0.32 0,0.62 0,0.93 v 4.43 a 1.21,1.21 0 0 0 0.19,0.72 0.75,0.75 0 0 0 0.49,0.3 5.78,5.78 0 0 0 0.76,0.11 6.56,6.56 0 0 0 0.87,0 h 0.79 2.23 0.57 a 1.39,1.39 0 0 0 0.53,-0.06 h 0.49 a 2.4,2.4 0 0 1 0.59,-0.08 2,2 0 0 0 0.55,-0.08 4.66,4.66 0 0 0 1.14,-0.49 2.76,2.76 0 0 0 0.83,-0.79 2.6,2.6 0 0 0 0.34,-0.76 c 0.12,-0.34 0.2,-0.65 0.27,-1 z"
       id="path870" />
  </g>
</svg>
